<svg width="129" height="46" viewBox="0 0 129 46" fill="none" xmlns="http://www.w3.org/2000/svg">
<path d="M0 19.565C8.08643 35.2088 21.8111 45.4999 37.3817 45.4999C38.8717 45.4999 40.3448 45.4057 41.7976 45.2215C42.184 42.1312 42.3849 38.9598 42.3849 35.7273C42.3849 22.5066 39.0248 10.3077 33.3559 0.5L28.5987 19.565H0Z" fill="#9333EA"/>
<path d="M59.2028 29.0215C59.2028 26.3685 59.5852 23.6911 60.3502 20.9893C61.5384 16.8063 63.3613 13.3477 65.819 10.6133C68.358 7.78125 71.0354 6.36523 73.8512 6.36523C76.4879 6.38151 78.7259 7.58594 80.5651 9.97852C82.5182 12.5339 83.625 15.9193 83.8854 20.1348C84.4225 19.9395 85.2119 19.5977 86.2535 19.1094C87.5719 18.4746 88.5729 18.1572 89.2565 18.1572C89.5657 18.1572 89.8587 18.2386 90.1354 18.4014C90.7376 18.7594 91.0387 19.2803 91.0387 19.9639C91.0224 20.5824 90.7376 21.1764 90.1842 21.7461C88.9798 22.9342 86.8558 23.8132 83.8121 24.3828C83.6656 26.1732 83.3564 27.9391 82.8844 29.6807C81.7451 33.9938 79.9222 37.5339 77.4156 40.3008C74.8766 43.1003 72.1503 44.5 69.2369 44.5C68.8789 44.5 68.5208 44.4756 68.1627 44.4268C65.6562 44.0687 63.581 42.5794 61.9371 39.959C60.1142 37.0456 59.2028 33.3997 59.2028 29.0215ZM63.3531 28.3623C63.3531 31.3245 63.7763 33.9043 64.6227 36.1016C65.762 39.0475 67.4384 40.5205 69.652 40.5205C70.2054 40.5205 70.7832 40.3822 71.3854 40.1055C73.1595 39.2917 74.8278 37.4932 76.3903 34.71C78.1643 31.6012 79.2711 28.2809 79.7106 24.749C77.2854 24.7165 75.08 24.041 73.0944 22.7227C70.4576 20.9648 68.5778 18.3607 67.4547 14.9102C64.7854 18.8978 63.4183 23.3818 63.3531 28.3623ZM74.608 10.9551C74.1849 10.9551 73.8024 11.0446 73.4606 11.2236C72.5654 11.7282 72.1178 12.721 72.1178 14.2021C72.1178 14.4626 72.1422 14.7393 72.191 15.0322C72.484 16.79 73.6071 18.263 75.5602 19.4512C77.0576 20.3464 78.4817 20.8102 79.8326 20.8428C79.735 19.4593 79.5397 18.1654 79.2467 16.9609C78.3515 13.1035 76.8053 11.1016 74.608 10.9551Z" fill="black"/>
<path d="M90.8434 30.4619C90.8597 30.4294 90.8922 30.3561 90.941 30.2422C92.4222 26.8893 93.1627 25.1966 93.1627 25.1641C93.1627 25.1478 93.1709 25.1315 93.1871 25.1152C93.5127 24.2852 94.1311 23.8701 95.0426 23.8701C95.3681 23.8864 95.7018 23.9189 96.0436 23.9678C98.778 24.391 101 25.7826 102.709 28.1426C104.287 30.3398 105.077 32.8464 105.077 35.6621C105.077 37.1432 104.784 38.6976 104.198 40.3252C103.352 42.7178 102.196 43.9141 100.731 43.9141C100.471 43.9141 100.202 43.8245 99.9254 43.6455C99.4046 43.2549 99.1442 42.7503 99.1442 42.1318C99.1442 41.9202 99.193 41.7005 99.2906 41.4727C99.2906 41.4727 99.3802 41.3099 99.5592 40.9844C100.731 39.0801 101.325 37.1839 101.341 35.2959C101.341 35.0843 101.333 34.8646 101.317 34.6367C101.154 32.5371 100.34 30.7467 98.8756 29.2656C97.9153 28.2891 97.0527 27.7926 96.2877 27.7764C96.011 28.2972 95.417 29.4609 94.5055 31.2676C94.5055 31.2676 94.4974 31.2839 94.4811 31.3164C94.4648 31.349 94.4485 31.3734 94.4323 31.3896C93.7324 32.7406 92.9918 33.416 92.2106 33.416C91.9827 33.416 91.7467 33.3672 91.5026 33.2695C90.8515 32.9766 90.526 32.4883 90.526 31.8047C90.526 31.5443 90.6074 31.1781 90.7701 30.7061C90.8027 30.5921 90.8271 30.5107 90.8434 30.4619Z" fill="black"/>
<path d="M106.2 9.02637C106.2 8.61947 106.314 8.22884 106.542 7.85449C106.981 7.15462 107.6 6.80469 108.397 6.80469H121.971C122.427 6.80469 122.826 6.94303 123.168 7.21973C123.754 7.67546 124.047 8.27767 124.047 9.02637L122.093 25.6523H125.878C126.284 25.6523 126.675 25.7663 127.049 25.9941C127.733 26.4336 128.075 27.0521 128.075 27.8496C128.075 28.2402 127.969 28.6146 127.757 28.9727C127.334 29.6888 126.691 30.0469 125.829 30.0469H121.556C120.629 37.5827 120.116 41.668 120.018 42.3027C120.002 42.4329 119.977 42.5713 119.945 42.7178C119.636 43.9059 118.911 44.5 117.772 44.5C117.316 44.5 116.909 44.3779 116.551 44.1338C115.868 43.6455 115.526 42.8968 115.526 41.8877C115.526 41.8714 116.039 37.9408 117.064 30.0957H113.548C113.142 30.0957 112.751 29.9818 112.377 29.7539C111.693 29.3145 111.351 28.696 111.351 27.8984C111.351 27.4915 111.465 27.1009 111.693 26.7266C112.132 26.043 112.751 25.7012 113.548 25.7012H117.65L119.554 11.2236H108.397C107.99 11.2236 107.6 11.1097 107.225 10.8818C106.542 10.4424 106.2 9.82389 106.2 9.02637Z" fill="black"/>
</svg>
