<?xml version="1.0" encoding="UTF-8"?>
<svg id="V1" xmlns="http://www.w3.org/2000/svg" viewBox="0 0 1080 1080">
  <defs>
    <style>
      .cls-1 {
        fill: #554166;
      }

      .cls-2 {
        fill: #7e39bb;
      }

      .cls-3 {
        font-size: 200px;
      }

      .cls-4 {
        fill: #9333ea;
      }

      .cls-5 {
        font-size: 100px;
      }

      .cls-6 {
        fill: #1a1a1a;
        font-family: Heavitas, Heavitas;
      }

      .cls-7 {
        fill: #6d4491;
      }
    </style>
  </defs>
  <g>
    <path class="cls-7" d="M509.61,342.28c-13.2-6.18-23.37,2.77-28.46,14.58-1.99,4.6-7.42,5.97-11.26,3.61l-28.27-41.28-.56.39-.03.05c-76.17,56.26-115.02,145.54-110.5,234.61l41.69-3.36c-2.78-6.19-3.79-12.48-2.86-18.29,1.15-7.14,5.16-13.31,11.59-17.86,6.58-4.67,15-6.39,23.14-4.81,8.13,1.58,15.3,6.35,19.66,13.1,5.45,8.41,4.77,16.69,2.69,23.49l40.1-3.23c-.95-41.79,17.19-83.24,51.9-110.54h.09s.56-.39.56-.39l-27.92-40.77c-.81-4.35,2.21-8.89,7.05-9.3,8.76-.75,17.1-1.9,21.49-10.61,5.34-10.6.58-24.37-10.12-29.38Z"/>
    <path class="cls-2" d="M385.64,521.59c-11.91,8.41-9.3,21.75-1.69,32.1,2.97,4.03,1.43,9.45-2.53,11.62l-49.65,4,.05.68.03.05c10.32,94.53,67.7,173.04,146.6,213.63l17.96-38.03c-6.72-.67-12.63-2.93-17.17-6.66-5.57-4.57-8.88-11.15-9.57-19.03-.73-8.07,2-16.27,7.44-22.58,5.42-6.3,13.11-10.16,21.1-10.59,9.96-.54,16.74,4.18,21.55,9.4l17.27-36.58c-36.43-20.06-63.02-56.61-69.15-100.51l.04-.08-.05-.68-49.03,3.95c-4.15-1.47-6.54-6.37-4.48-10.8,3.73-8.01,6.92-15.86,1.62-24.04-6.45-9.96-20.67-12.69-30.34-5.87Z"/>
    <path class="cls-4" d="M477.93,719.31c1.28,14.59,14.07,18.99,26.77,17.52,4.95-.57,8.84,3.48,8.74,8.02l-21.38,45.28.61.29h.06c86.49,38.27,182.72,27.5,257.1-20.98l-23.74-34.67c-3.93,5.52-8.84,9.55-14.31,11.64-6.72,2.57-14.03,2.16-21.16-1.17-7.31-3.4-12.99-9.88-15.7-17.77-2.71-7.88-2.18-16.51,1.44-23.69,4.51-8.95,11.97-12.5,18.86-14.09l-22.83-33.34c-35.48,21.73-80.21,26.63-121.05,10.02l-.05-.08-.61-.29-21.12,44.72c-3.34,2.88-8.75,2.51-11.53-1.49-5.02-7.26-10.18-13.96-19.88-13.43-11.79.64-21.26,11.68-20.22,23.51Z"/>
    <path class="cls-1" d="M725.86,360.69c-1.28-14.59-14.07-18.99-26.77-17.52-4.95.57-8.84-3.48-8.74-8.02l21.38-45.28-.61-.29h-.06c-86.49-38.27-182.72-27.5-257.1,20.98l23.74,34.67c3.93-5.52,8.84-9.55,14.31-11.64,6.72-2.57,14.03-2.16,21.16,1.17,7.31,3.4,12.99,9.88,15.7,17.77,2.71,7.88,2.18,16.51-1.44,23.69-4.51,8.95-11.97,12.5-18.86,14.09l22.83,33.34c35.48-21.73,80.21-26.63,121.05-10.02l.05.08.61.29,21.12-44.72c3.34-2.88,8.75-2.51,11.53,1.49,5.02,7.26,10.18,13.96,19.88,13.43,11.79-.64,21.26-11.68,20.22-23.51Z"/>
  </g>
  <text class="cls-6" transform="translate(560.13 614.74)"><tspan class="cls-3" x="0" y="0">8</tspan><tspan class="cls-5" x="124.2" y="0">s</tspan></text>
</svg>