<svg version="1.2" xmlns="http://www.w3.org/2000/svg" viewBox="0 0 968 548" width="968" height="548">
	<title>roxo_extensa-svg</title>
	<style>
		tspan { white-space:pre } 
		.s0 { fill: #6d4491 } 
		.s1 { fill: #7e39bb } 
		.s2 { fill: #9333ea } 
		.s3 { fill: #554166 } 
		.s4 { fill: #333333 } 
		.s5 { fill: #4d4d4d } 
		.t6 { font-size: 150px;fill: #1a1a1a;font-family: "Heavitas" } 
	</style>
	<g id="V2">
		<g>
			<path class="s0" d="m179.7 76.3c-13.2-6.2-23.4 2.7-28.5 14.6-2 4.6-7.4 5.9-11.2 3.6l-28.3-41.3-0.6 0.4c-76.2 56.3-115 145.6-110.5 234.6l41.7-3.3c-2.8-6.2-3.8-12.5-2.9-18.3 1.2-7.1 5.2-13.3 11.6-17.9 6.6-4.6 15-6.4 23.2-4.8 8.1 1.6 15.3 6.4 19.6 13.1 5.5 8.4 4.8 16.7 2.7 23.5l40.1-3.2c-0.9-41.8 17.2-83.3 51.9-110.6h0.1l0.6-0.4-27.9-40.7c-0.9-4.4 2.2-8.9 7-9.3 8.8-0.8 17.1-1.9 21.5-10.6 5.3-10.6 0.6-24.4-10.1-29.4z"/>
			<path class="s1" d="m55.7 255.6c-11.9 8.4-9.3 21.7-1.7 32.1 3 4 1.5 9.4-2.5 11.6l-49.6 4v0.7c10.4 94.6 67.7 173.1 146.6 213.7l18-38.1c-6.7-0.6-12.6-2.9-17.2-6.6-5.5-4.6-8.9-11.2-9.5-19-0.8-8.1 2-16.3 7.4-22.6 5.4-6.3 13.1-10.2 21.1-10.6 10-0.6 16.7 4.2 21.6 9.4l17.2-36.6c-36.4-20.1-63-56.6-69.1-100.5v-0.1-0.7l-49.1 4c-4.1-1.5-6.5-6.4-4.5-10.8 3.8-8 7-15.9 1.7-24.1-6.5-9.9-20.7-12.6-30.4-5.8z"/>
			<path class="s2" d="m148 453.3c1.3 14.6 14.1 19 26.8 17.5 4.9-0.5 8.8 3.5 8.7 8l-21.3 45.3 0.6 0.3c86.5 38.3 182.7 27.5 257.1-21l-23.7-34.6c-3.9 5.5-8.9 9.5-14.3 11.6-6.7 2.6-14.1 2.2-21.2-1.2-7.3-3.4-13-9.8-15.7-17.7-2.7-7.9-2.2-16.5 1.5-23.7 4.5-9 11.9-12.5 18.8-14.1l-22.8-33.4c-35.5 21.8-80.2 26.7-121.1 10.1v-0.1l-0.6-0.3-21.1 44.7c-3.4 2.9-8.8 2.5-11.6-1.5-5-7.2-10.2-13.9-19.9-13.4-11.7 0.6-21.2 11.7-20.2 23.5z"/>
			<path class="s3" d="m395.9 94.7c-1.2-14.6-14-19-26.7-17.5-5 0.5-8.9-3.5-8.8-8l21.4-45.3-0.6-0.3c-86.5-38.3-182.8-27.5-257.2 21l23.8 34.6c3.9-5.5 8.8-9.5 14.3-11.6 6.7-2.6 14-2.2 21.2 1.2 7.3 3.4 12.9 9.8 15.7 17.7 2.7 7.9 2.1 16.5-1.5 23.7-4.5 9-12 12.5-18.8 14.1l22.8 33.3c35.5-21.7 80.2-26.6 121-10l0.1 0.1 0.6 0.3 21.1-44.7c3.4-2.9 8.8-2.5 11.5 1.5 5.1 7.2 10.2 13.9 19.9 13.4 11.8-0.6 21.3-11.7 20.3-23.5z"/>
		</g>
		<g>
			<path class="s4" d="m818.2 376.2c0.5 5.5 5.3 7.1 10.1 6.6 1.9-0.3 3.4 1.3 3.4 3l-8.1 17.2 0.3 0.1c32.8 14.3 69.2 10.1 97.3-8.3l-9.1-13.1c-1.4 2.1-3.3 3.6-5.4 4.4-2.5 1-5.3 0.9-8-0.4-2.7-1.3-4.9-3.7-5.9-6.7-1.1-3-0.9-6.2 0.5-9 1.7-3.4 4.5-4.7 7.1-5.3l-8.7-12.6c-13.4 8.3-30.3 10.2-45.8 3.9l-0.2-0.1-8 16.9c-1.3 1.1-3.3 1-4.4-0.5-1.9-2.7-3.8-5.3-7.5-5.1-4.5 0.3-8 4.5-7.6 9z"/>
			<path class="s4" d="m900.1 382.9c5 2.3 8.8-1.1 10.7-5.6 0.8-1.7 2.8-2.3 4.3-1.4l10.7 15.6 0.3-0.1c28.7-21.4 43.3-55.3 41.5-89l-15.8 1.3c1.1 2.4 1.5 4.7 1.1 6.9-0.4 2.7-1.9 5.1-4.3 6.8-2.5 1.8-5.7 2.5-8.8 1.9-3.1-0.6-5.8-2.4-7.4-5-2.1-3.1-1.9-6.3-1.1-8.9l-15.2 1.3c0.4 15.8-6.4 31.5-19.5 41.9l-0.2 0.2 10.6 15.4c0.3 1.6-0.8 3.3-2.7 3.5-3.3 0.3-6.4 0.7-8.1 4-2 4.1-0.2 9.3 3.9 11.2z"/>
			<path class="s5" d="m946.3 315.4c4.7-2.9 3.9-8 1.3-12.1-1.1-1.5-0.4-3.6 1.1-4.3l18.9-0.6v-0.3c-2.2-35.9-22.5-66.7-51.6-83.5l-7.4 14.1c2.5 0.3 4.7 1.3 6.3 2.8 2.1 1.8 3.2 4.4 3.3 7.4 0.1 3-1.1 6.1-3.2 8.4-2.2 2.2-5.2 3.6-8.2 3.6-3.8 0-6.2-1.9-8-4l-7.2 13.5c13.4 8.3 22.8 22.6 24.3 39.3v0.3l18.6-0.6c1.6 0.7 2.4 2.6 1.5 4.2-1.5 2.9-2.9 5.9-1 9 2.2 3.9 7.6 5.2 11.3 2.8z"/>
		</g>
		<g>
			<text id="Os o" style="transform: matrix(1,0,0,1,212.88,320.35)" >
				<tspan x="0" y="0" class="t6">Os o
</tspan>
			</text>
			<text id="i" style="transform: matrix(1,0,0,1,614.57,320.35)" >
				<tspan x="0" y="0" class="t6">i
</tspan>
			</text>
			<text id="t" style="transform: matrix(1,0,0,1,660.77,320.35)" >
				<tspan x="0" y="0" class="t6">t
</tspan>
			</text>
			<text id="o" style="transform: matrix(1,0,0,1,751.67,320.35)" >
				<tspan x="0" y="0" class="t6">o
</tspan>
			</text>
		</g>
	</g>
</svg>